<?xml version="1.0" encoding="utf-8"?>
<!-- Generator: Adobe Illustrator 16.0.0, SVG Export Plug-In . SVG Version: 6.00 Build 0)  -->
<!DOCTYPE svg PUBLIC "-//W3C//DTD SVG 1.1//EN" "http://www.w3.org/Graphics/SVG/1.1/DTD/svg11.dtd">
<svg version="1.1" id="Calque_1" xmlns="http://www.w3.org/2000/svg" xmlns:xlink="http://www.w3.org/1999/xlink" x="0px" y="0px"
	 width="612px" height="792px" viewBox="0 0 612 792" enable-background="new 0 0 612 792" xml:space="preserve">
<title>atelierdesign</title>
<g id="HEADER_FOOTER">
	<path d="M539.673,537.873c39.228-40.164,61.191-94.076,61.2-150.219l0,0c-0.526-56.039-22.415-109.766-61.2-150.218
		c-10.815-10.781-22.97-20.13-36.164-27.818c-1.536,0-2.781-1.246-2.781-2.782l0,0l0,0c-31.128-21.403-67.936-33.027-105.709-33.382
		h-86.236c-2.782,0-5.564,2.782-8.346,5.563c-2.782,2.782-2.782,5.564,0,11.127l27.818,75.109c2.781,5.564,5.563,8.346,11.127,8.346
		H397.8c29.033,0.853,56.337,14,75.109,36.164c19.313,22.489,30.14,51.032,30.6,80.673c0.033,29.732-10.856,58.441-30.6,80.673
		c-19.125,21.703-46.217,34.747-75.109,36.163h-36.163L250.364,192.927c-2.198-10.348-11.706-17.479-22.255-16.691h-66.763
		c-10.549-0.788-20.057,6.343-22.255,16.691L2.782,579.6c-2.813,4.21-2.813,9.7,0,13.909c3.802,3.49,8.749,5.469,13.909,5.563
		h63.982c10.549,0.788,20.057-6.343,22.254-16.69l19.473-58.418h141.873l19.473,58.418c2.198,10.348,11.705,17.479,22.254,16.69
		h86.236c36.499-0.352,72.164-10.954,102.928-30.6l0,0c1.536,0,2.781-1.245,2.781-2.781l0,0
		C513.085,558.411,527.13,549.047,539.673,537.873z M144.654,443.291l50.073-158.564l52.855,158.564H144.654z"/>
</g>
</svg>
